<?xml version="1.0" encoding="utf-8"?>
<!-- Generator: Adobe Illustrator 20.1.0, SVG Export Plug-In . SVG Version: 6.00 Build 0)  -->
<svg version="1.1" id="Layer_1" xmlns="http://www.w3.org/2000/svg" xmlns:xlink="http://www.w3.org/1999/xlink" x="0px" y="0px"
	 viewBox="0 0 299 299" style="enable-background:new 0 0 299 299;" xml:space="preserve">
<style type="text/css">
	.st0{fill:none;stroke:#000000;stroke-width:25;stroke-miterlimit:10;}
</style>
<title>Gutter Grid logo</title>
<path class="st0" d="M42.6,12.5h213.8c16.6,0,30.1,13.5,30.1,30.1v213.8c0,16.6-13.5,30.1-30.1,30.1H42.6
	c-16.6,0-30.1-13.5-30.1-30.1V42.6C12.5,26,26,12.5,42.6,12.5z"/>
<g>
	<path d="M179.4,41.9h61c9.4,0,17,7.6,17,17v61c0,9.4-7.6,17-17,17h-61c-9.4,0-17-7.6-17-17v-61C162.4,49.5,170.1,41.9,179.4,41.9z"
		/>
	<path d="M179.4,162.7h61c9.4,0,17,7.6,17,17v61c0,9.4-7.6,17-17,17h-61c-9.4,0-17-7.6-17-17v-61
		C162.4,170.4,170.1,162.7,179.4,162.7z"/>
	<path d="M58.9,162.7h61c9.4,0,17,7.6,17,17v61c0,9.4-7.6,17-17,17h-61c-9.4,0-17-7.6-17-17v-61C41.9,170.4,49.5,162.7,58.9,162.7z"
		/>
	<path d="M58.9,41.9h61c9.4,0,17,7.6,17,17v61c0,9.4-7.6,17-17,17h-61c-9.4,0-17-7.6-17-17v-61C41.9,49.5,49.5,41.9,58.9,41.9z"/>
</g>
</svg>
