<?xml version="1.0" standalone="no"?>
<!DOCTYPE svg PUBLIC "-//W3C//DTD SVG 20010904//EN"
 "http://www.w3.org/TR/2001/REC-SVG-20010904/DTD/svg10.dtd">
<svg version="1.0" xmlns="http://www.w3.org/2000/svg"
 width="700.000000pt" height="700.000000pt" viewBox="0 0 700.000000 700.000000"
 preserveAspectRatio="xMidYMid meet">
<metadata>
Created by potrace 1.11, written by Peter Selinger 2001-2013
</metadata>
<g transform="translate(0.000000,700.000000) scale(0.100000,-0.100000)"
fill="#000000" stroke="none">
<path d="M875 6994 c-112 -22 -182 -39 -189 -46 -6 -4 -16 -8 -23 -8 -22 0
-178 -78 -234 -118 -81 -56 -208 -188 -264 -271 -64 -97 -119 -232 -144 -356
-21 -99 -21 -115 -20 -2700 1 -2468 2 -2605 19 -2690 28 -142 101 -305 182
-410 51 -66 177 -183 247 -230 98 -64 240 -122 360 -145 93 -19 185 -19 2691
-19 1650 0 2613 3 2645 10 28 5 63 12 79 15 45 8 144 43 212 75 146 68 304
206 397 346 38 57 86 146 92 173 1 3 7 19 14 35 7 17 22 66 34 110 l22 80 2
2625 c3 2865 6 2690 -54 2860 -103 295 -340 526 -633 620 -35 11 -75 22 -89
25 -14 2 -48 9 -76 14 -47 10 -5223 14 -5270 5z m5245 -598 c158 -53 268 -180
288 -334 4 -32 7 -1200 6 -2597 -1 -2395 -2 -2543 -18 -2590 -50 -141 -168
-249 -306 -280 -48 -11 -5102 -13 -5165 -2 -143 25 -265 131 -318 275 -20 57
-20 58 -21 2597 -1 1397 2 2566 6 2598 22 168 173 321 340 345 28 4 1195 7
2592 6 2437 0 2543 -1 2596 -18z"/>
<path d="M1285 6006 c-152 -38 -265 -159 -295 -316 -13 -66 -13 -1507 0 -1565
16 -77 19 -85 45 -129 57 -98 148 -164 262 -189 82 -19 1547 -16 1613 2 70 20
120 51 177 108 60 60 98 134 110 213 5 30 8 390 8 800 -1 570 -5 756 -14 790
-42 148 -162 262 -306 289 -78 16 -1537 12 -1600 -3z"/>
<path d="M4100 6004 c-146 -39 -255 -154 -285 -300 -20 -102 -15 -1570 6
-1629 53 -147 174 -252 316 -273 26 -4 386 -7 798 -7 783 2 791 2 875 45 99
50 188 171 208 280 5 25 8 389 7 810 -1 705 -3 769 -19 814 -50 138 -165 239
-302 266 -28 5 -365 9 -799 9 -627 0 -759 -3 -805 -15z"/>
<path d="M1265 3173 c-113 -35 -211 -126 -257 -240 l-23 -58 -2 -780 c-3 -864
-5 -837 62 -940 67 -103 146 -156 275 -182 14 -3 367 -6 786 -6 705 0 764 1
815 18 94 31 167 86 216 163 69 107 66 75 67 911 1 788 0 816 -43 912 -24 54
-107 142 -159 168 -101 52 -88 51 -916 50 -659 -1 -778 -3 -821 -16z"/>
<path d="M4083 3171 c-29 -9 -58 -22 -65 -29 -6 -6 -17 -12 -24 -12 -6 0 -36
-24 -67 -54 -60 -59 -102 -135 -116 -208 -11 -62 -11 -1513 0 -1574 22 -115
109 -235 203 -279 103 -48 101 -48 846 -48 388 0 737 2 775 3 189 8 332 122
377 300 22 84 18 1574 -4 1641 -31 95 -110 189 -198 234 -86 44 -95 45 -905
44 -696 -1 -775 -2 -822 -18z"/>
</g>
</svg>
